PathFileType	4	(X/Y/Z)	Run_300 01
DataRate	CameraRate	NumFrames	NumMarkers	Units	OrigDataRate	OrigDataStartFrame	OrigNumFrames
120	120	4	42	mm	120	34	128
Frame#	Time	LASI			LPSI			RPSI			RTH1			RTH2			RTH3			LTH1			LTH2			LTH3			RTB1			RTB2			RTB3			LTB1			LTB2			RCAL			RTOE			RMT5			LCAL			LMT5			LACR			RACR			CLAV			C7			RUA1			RUA2			RUA3			RLEL			RMEL			LUA1			LUA2			LUA3			LLEL			LMEL			RFAsuperior			RFAradius			RFAulna			LFAsuperior			LFAradius			LFAulna			LTB3			LTOE			RASI			
		X1	Y1	Z1	X2	Y2	Z2	X3	Y3	Z3	X4	Y4	Z4	X5	Y5	Z5	X6	Y6	Z6	X7	Y7	Z7	X8	Y8	Z8	X9	Y9	Z9	X10	Y10	Z10	X11	Y11	Z11	X12	Y12	Z12	X13	Y13	Z13	X14	Y14	Z14	X15	Y15	Z15	X16	Y16	Z16	X17	Y17	Z17	X18	Y18	Z18	X19	Y19	Z19	X20	Y20	Z20	X21	Y21	Z21	X22	Y22	Z22	X23	Y23	Z23	X24	Y24	Z24	X25	Y25	Z25	X26	Y26	Z26	X27	Y27	Z27	X28	Y28	Z28	X29	Y29	Z29	X30	Y30	Z30	X31	Y31	Z31	X32	Y32	Z32	X33	Y33	Z33	X34	Y34	Z34	X35	Y35	Z35	X36	Y36	Z36	X37	Y37	Z37	X38	Y38	Z38	X39	Y39	Z39	X40	Y40	Z40	X41	Y41	Z41	X42	Y42	Z42	

31	0.416667	759.796026	1041.048958	-501.338853	588.708932	1061.429068	-440.123163	582.161762	1063.792445	-350.141297	651.353819	850.051656	-226.749302	662.973445	717.880536	-261.956022	536.589263	634.382056	-262.647315	777.753463	914.892565	-542.521448	877.552592	843.704079	-511.16636	879.277909	689.906861	-515.9722870000001	500.533159	421.727339	-323.911073	429.853435	384.914235	-272.798986	395.334992	274.054028	-344.492472	918.1650990000001	467.080376	-441.142884	836.179863	390.914322	-498.701896	229.944893	224.812513	-354.752241	387.928612	75.963888	-385.966608	347.451154	73.451049	-296.17717	650.162063	245.200364	-438.676	819.805103	145.01025	-509.385696	682.9237460000001	1496.985191	-557.741992	742.839381	1477.167149	-193.179359	813.822921	1450.924545	-370.702456	682.7878020000001	1537.036268	-372.224568	737.345384	1368.947246	-129.513514	756.7733500000001	1302.117082	-136.404114	672.294444	1286.126853	-71.738514	713.690457	1208.525782	-48.910885	645.20623	1175.078639	-100.691073	626.5097040000001	1456.031069	-609.39796	551.509829	1419.96207	-586.1498360000001	576.482543	1387.506188	-656.182159	506.745022	1307.361673	-700.5514020000001	456.534745	1281.954974	-626.84835	782.747656	1215.866871	-97.191069	876.2849210000001	1236.65569	-233.125415	873.723763	1169.89509	-221.673715	573.563823	1282.677046	-686.559849	703.8564710000001	1227.616461	-582.645417	685.22344	1171.791879	-611.531194	806.444553	310.347883	-428.969041	849.604778	158.683479	-422.165471	743.951321	1029.371477	-262.961005	
32	0.425	761.078917	1045.161146	-501.87498	591.208502	1066.93371	-439.943822	584.85317	1069.29727	-349.863184	648.851195	854.968601	-225.926603	658.212235	722.3044169999999	-258.641635	531.791039	640.773204	-261.420586	778.556405	918.715644	-542.73687	877.445501	845.548243	-512.41737	875.401027	690.739717	-515.114103	492.744884	427.697896	-321.300857	420.918016	393.085531	-270.530622	384.169207	282.539722	-341.629514	924.041371	465.951961	-440.588306	847.3707450000001	383.439506	-497.865542	220.163035	241.882756	-352.066127	367.707081	82.572288	-383.47811	325.651456	78.901151	-294.103787	673.2438090000001	223.87608	-435.656942	850.228606	136.80633	-505.754695	681.314013	1500.848868	-557.857761	744.87816	1482.297768	-194.691719	813.382449	1455.520322	-372.38482	682.7065239999999	1540.957072	-372.777604	740.765948	1375.060912	-129.848218	760.3349459999999	1307.769346	-136.545172	677.035861	1292.527868	-69.944774	718.058164	1214.317486	-48.960766	647.280409	1181.67498	-98.257176	624.976018	1460.841517	-609.434817	550.001889	1425.094618	-586.687393	574.770027	1392.289481	-656.69855	504.597886	1312.171351	-700.8702919999999	454.595218	1286.84692	-626.643255	785.29946	1221.713947	-99.52634399999999	873.425911	1242.830099	-239.035142	871.497345	1176.231356	-227.88549	571.490469	1287.932861	-687.04281	702.723451	1233.66392	-583.8388650000001	684.334065	1178.017566	-612.607637	824.381978	301.164905	-426.960427	878.790876	153.684762	-418.700224	745.7778960000001	1032.672158	-265.333859	
33	0.433333	762.160569	1048.131889	-502.555439	593.36311	1071.890404	-439.754666	587.0984110000001	1074.503626	-349.618371	647.0713490000001	859.558882	-225.119395	655.81526	726.806092	-254.320995	529.787011	645.476109	-260.361322	778.541587	920.758664	-543.059768	876.3576890000001	845.6785609999999	-514.665713	871.000801	690.514507	-514.673643	486.356792	432.049564	-319.450803	413.569425	400.01516	-268.804134	373.128283	290.807084	-339.480892	928.463995	464.389109	-439.839459	857.907402	375.80057	-496.935661	210.863949	259.596627	-350.202696	346.728433	90.062714	-380.725862	302.661539	86.246312	-292.18572	696.290657	203.618657	-433.167466	879.749666	129.761959	-501.915969	680.127032	1503.837749	-558.013257	746.611639	1486.6085	-196.152065	813.234428	1459.140234	-373.824057	682.791557	1544.071627	-373.361895	743.731699	1380.389229	-130.131389	763.667932	1312.53634	-136.342171	681.31385	1298.22691	-68.15595500000001	721.8364780000001	1219.33982	-48.80182	648.918197	1187.616969	-95.618398	623.826899	1464.853333	-609.558749	548.773308	1429.330278	-587.420303	573.391825	1396.282397	-657.379387	502.846111	1316.110042	-701.400807	453.101978	1290.778818	-626.77211	787.27994	1226.682768	-101.463958	870.137607	1248.004089	-244.114958	868.715187	1181.570963	-233.371794	569.834852	1292.426769	-687.72472	702.0631540000001	1239.006547	-585.351902	683.887505	1183.488322	-614.029574	841.442886	292.506042	-424.934928	906.5187120000001	150.041445	-414.805181	747.294051	1035.628988	-266.715015	
34	0.441667	762.972518	1049.97431	-503.115257	595.100066	1076.120363	-439.511953	588.928259	1079.165824	-349.392544	646.552366	863.389414	-224.413765	656.050668	730.484091	-249.796509	530.4633679999999	648.367381	-259.324268	777.558525	921.178143	-543.6376	874.343804	844.273103	-517.601266	866.200577	689.128314	-514.650075	481.255458	435.137886	-317.832759	407.256285	406.192968	-267.39918	362.313399	298.956444	-337.759627	931.425801	462.251988	-439.320409	867.443125	368.190241	-495.933027	202.094157	277.848356	-349.315639	324.683043	98.210837	-377.893116	278.603433	95.969751	-290.408634	718.875212	184.751483	-430.82265	907.724606	123.924302	-498.15511	679.404253	1505.903563	-558.242461	747.986668	1490.048107	-197.546424	813.3394500000001	1461.836211	-375.05184	683.036593	1546.334198	-374.032904	746.220676	1384.808102	-130.349272	766.75123	1316.380285	-135.80446	685.036923	1303.136842	-66.44161699999999	725.002706	1223.544786	-48.38804	650.04389	1192.833111	-92.868711	623.134232	1467.974267	-609.8078379999999	547.870123	1432.644297	-588.353878	572.386195	1399.437725	-658.219884	501.507388	1319.22965	-702.167582	452.08219	1293.718996	-627.251966	788.740713	1230.694377	-102.958754	866.459267	1252.075933	-248.495734	865.442354	1185.821233	-237.970554	568.593753	1296.158424	-688.615032	701.841182	1243.615444	-587.172599	683.8699779999999	1188.140235	-615.804065	857.30918	284.504117	-422.949402	932.410337	147.726888	-410.821583	748.550014	1038.402348	-267.113217	
